#!OML:ASF E:/inclinewalkrobotboard/Project1/Captureday1/Session1/subject1.ASF
:FULLY-SPECIFIED
:DEGREES
138
root 0 0 0 1.4147125828501848 -3.5262546531626 1.891629258217215
lowerback 11.96310464828069 0.8856905281161647 -0.10884781575522218
upperback -4.419153711369538 1.1091568431940177 -0.6226290691632813
thorax -11.535589332509453 0.5094520413112662 -0.8537588678160392
lowerneck -6.125164532214791 1.6409152348917655 4.603102850339638
upperneck 18.450078772322712 3.138308983826995 -8.244889526019817
head 6.785480466689541 1.1555986416372885 -3.179883847987945
rclavicle -1.7782530106156399E-16 -9.71398811658122E-16
rhumerus 22.13633563796794 15.890118762534955 -46.59565434993441
rradius 74.22869445401496
rwrist 27.8515412432074
rhand -34.826297597826716 -59.6189658443237
rfingers 7.12502
rthumb -7.986903979556377 -89.43274862509858
lclavicle -1.7160572545471094E-16 -9.48090974436234E-16
lhumerus 22.845483641440868 -12.808932508587704 43.59610659458781
lradius 71.3620539254037
lwrist -23.66405366054938
lhand -45.35416918543868 -73.28689457918011
lfingers 7.12502
lthumb -18.110405907178233 -44.06700412588934
rfemur -24.999799469291332 -1.8684801334076013 17.112993799302743
rtibia 54.037287683916304
rfoot -26.577543966059856 -16.06027728760764
rtoes -16.83098320916448
lfemur -22.18409723671902 1.3292002819951922 -18.106282998388263
ltibia 49.19432023575233
lfoot -24.135883357479003 -3.643868800578562
ltoes -15.7497537000513
139
root 0 0 0 1.426996707690285 -3.5800564213076234 1.8277700598647535
lowerback 11.96708992959344 0.9171112333703637 -0.032815582806289934
upperback -4.43670975299821 1.1591782886921191 -0.6271892214782383
thorax -11.552978006881174 0.5319647179643906 -0.9088511415547685
lowerneck -6.102604987762152 1.6443505243442431 4.627782872868688
upperneck 18.449821399724797 3.1477420307013886 -8.26164004744978
head 6.782620449815191 1.1596767805507575 -3.1896541943150094
rclavicle -1.7485014495630553E-16 -9.707486588538272E-16
rhumerus 22.240782878343694 15.960054658924689 -46.53300368484334
rradius 74.32654538427651
rwrist 27.89884171814281
rhand -34.861027651603116 -59.785358682661546
rfingers 7.12502
rthumb -8.020734629388558 -89.597741411605
lclavicle -1.728146495547851E-16 -9.477394369954649E-16
lhumerus 22.8096956922794 -12.799558127807762 43.620996464700255
lradius 71.3335585198648
lwrist -23.644920178438745
lhand -45.34202852817759 -73.22273348432165
lfingers 7.12502
lthumb -18.09867587511497 -44.00601772492486
rfemur -25.08741451977251 -1.9110374296876333 17.050072939270972
rtibia 54.136433193690756
rfoot -26.690752524301203 -16.12156087419253
rtoes -16.9589596759236
lfemur -22.128284796620378 1.3120871938676602 -18.117322242478867
ltibia 49.09472878702243
lfoot -24.073135550922593 -3.6300261161437795
ltoes -15.690622161266447
140
root 0 0 0 1.431887582053354 -3.5996290770753374 1.805402786391922
lowerback 11.96873436201031 0.9285577191254961 -0.005608789896536459
upperback -4.4437034973595715 1.1773251395637363 -0.6292531301783805
thorax -11.560114025875091 0.5401650311602448 -0.9290782376969778
lowerneck -6.0931469735226464 1.6462611740230322 4.637654776750397
upperneck 18.449545219892677 3.152120957027791 -8.268912827432612
head 6.781265443374642 1.1615665817622332 -3.1936055408111064
rclavicle -1.7356662996456845E-16 -9.70293999155272E-16
rhumerus 22.27882280374537 15.984816115114269 -46.50999633399654
rradius 74.36134477923801
rwrist 27.915873204386898
rhand -34.87356741575688 -59.84379220142086
rfingers 7.12502
rthumb -8.033000827015101 -89.65556517462684
lclavicle -1.7297953959915062E-16 -9.486816991157894E-16
lhumerus 22.770361727803188 -12.789984892025846 43.64798770917436
lradius 71.30289014705076
lwrist -23.62481707028944
lhand -45.328887630219064 -73.15627725131665
lfingers 7.12502
lthumb -18.08655552570728 -43.93914322175942
rfemur -25.20601702896723 -1.9678957879250678 16.965856405642615
rtibia 54.26874648020744
rfoot -26.839194836204605 -16.20160070584764
rtoes -17.12714273366624
lfemur -22.043687439275708 1.2895171526564146 -18.133482733497573
ltibia 48.966604711317046
lfoot -23.981851468123637 -3.6187530131517907
ltoes -15.613829179613965
141
root 0 0 0 1.434489167064506 -3.6059296180415736 1.799810440618127
lowerback 11.969570675438057 0.9322193000396966 0.002281164988566342
upperback -4.44718463022968 1.1829598859151214 -0.6305695831040247
thorax -11.564022009767037 0.5427309238455551 -0.9357513485833754
lowerneck -6.087472168616436 1.6481393450171071 4.642493074365048
upperneck 18.4491555411827 3.155393778463695 -8.273526545930157
head 6.780247934945807 1.1629623728267928 -3.1956226642936425
rclavicle -1.7321922296262198E-16 -9.701576962844497E-16
rhumerus 22.289286981562533 15.99176125878328 -46.50386332107803
rradius 74.371144939404
rwrist 27.92048304166098
rhand -34.87702146573248 -59.860050714715484
rfingers 7.12502
rthumb -8.036401691106784 -89.67160354681954
lclavicle -1.7347798413111658E-16 -9.489107769963752E-16
lhumerus 22.736419288889717 -12.781494631228451 43.67155751375748
lradius 71.2762396991946
lwrist -23.607045531285348
lhand -45.31743771078685 -73.09743918418764
lfingers 7.12502
lthumb -18.075703747208742 -43.88088570369533
rfemur -25.34594530598884 -2.0343811421026965 16.867060712015743
rtibia 54.42289152982982
rfoot -27.01279509165983 -16.29621748245246
rtoes -17.3244408091464
lfemur -21.951450479060377 1.2657210251100033 -18.151340545177785
ltibia 48.831362553637426
lfoot -23.882935149578685 -3.6084932408910135
ltoes -15.533009744194306
142
root 0 0 0 1.4354766415422318 -3.601859333591334 1.8075496725970341
lowerback 11.969865075835942 0.9298107567578493 -0.004977655090200428
upperback -4.448141495015582 1.1788265222784582 -0.6314122293510632
thorax -11.565699556927957 0.5409008654960312 -0.9319596404469569
lowerneck -6.084204136365241 1.6501980184396412 4.643741223867105
upperneck 18.448619944093455 3.158120747275085 -8.276507186709395
head 6.779388851000993 1.1640888428963558 -3.19629375332302
rclavicle -1.7318059922051656E-16 -9.701012564646562E-16
rhumerus 22.28674723634692 15.990073576633632 -46.50553131703711
rradius 74.36885499841918
rwrist 27.919252069899233
rhand -34.87619745665224 -59.855915177837744
rfingers 7.12502
rthumb -8.03561550998305 -89.6674016313415
lclavicle -1.7377368801562073E-16 -9.491294542386942E-16
lhumerus 22.71707224172827 -12.776664348167364 43.68495322122335
lradius 71.26104338749303
lwrist -23.596941663528703
lhand -45.3109297316822 -73.06395970893357
lfingers 7.12502
lthumb -18.069550664028174 -43.84773554795936
rfemur -25.47913964720324 -2.0974179880603696 16.77323378619422
rtibia 54.568869541684336
rfoot -27.177252732311835 -16.38601037253472
rtoes -17.511619684705202
lfemur -21.862200437427067 1.2433293967612522 -18.16871297620985
ltibia 48.704417823005414
lfoot -23.788045561538897 -3.6003214216831836
ltoes -15.457448480853547
